<svg viewBox="0 0 48 48" xmlns="http://www.w3.org/2000/svg" xmlns:xlink= "http://www.w3.org/1999/xlink">
                            <style>
                                .a {
                                    fill: #F44336;
                                }

                                .b {
                                    fill: #1565C0;
                                }
                            </style>
                            <path d="M23.6 24.9C22.7 23.3 21.9 22 20.9 19.4 19.2 15.2 31.2 11.4 26.4 4 28.5 9.1 18.8 12.2 17.9 16.5 17.1 20.4 23.6 24.9 23.6 24.9Z"
                                class="a" />
                            <path d="M23.9 17.3C23.7 19.8 26.1 21.1 26.2 23 26.2 24.5 24.7 25.7 24.7 25.7 24.7 25.7 27.5 25.2 28.3 22.9 29.3 20.4 26.5 18.6 26.8 16.6 27 14.7 32.8 11.1 32.8 11.1 32.8 11.1 24.3 11.6 23.9 17.3Z"
                                class="a" />
                            <path d="M32.1 25.1C33.8 24.7 35.3 25.8 35.3 27.1 35.3 30 31.3 32.7 31.3 32.7 31.3 32.7 37.5 32 37.5 27.2 37.5 24.1 34.5 23.3 32.1 25.1Z"
                                class="b" />
                            <path d="M29.1 27.4C29.1 27.4 31.1 26 31.6 25.5 26.8 26.5 15.9 26.6 15.9 25.8 15.9 25 19.5 24.1 19.5 24.1 19.5 24.1 11.7 24 11.7 26.3 11.7 28.7 21.9 28.9 29.1 27.4Z"
                                class="b" />
                            <path d="M27.9 29.6C23.4 31.1 15.1 30.6 17.6 28.6 16.4 28.6 14.6 29.5 14.6 30.5 14.6 32.3 23.6 33.8 30.2 31Z" class="b" />
                            <path d="M18.7 32.7C17.1 32.7 16 33.8 16 34.6 16 37 25.8 37.2 29.6 34.8L27.2 33.1C24.3 34.4 17 34.6 18.7 32.7Z" class="b"
                            />
                            <path d="M36.3 36.6C36.3 35.7 35.2 35.3 34.8 35 37.1 40.4 12.5 40 12.5 36.8 12.5 36.1 14.3 35.4 16 35.7L14.6 34.9C11.3 34.4 9 35.8 9 37 9 42.5 36.3 42.3 36.3 36.6Z"
                                class="b" />
                            <path d="M39 38.6C34.9 42.7 24.3 44.2 13.8 41.7 24.3 46.2 38.9 43.6 39 38.6Z" class="b" />
                        </svg>